HIERARCHY
ROOT Hips
{
	OFFSET -14.64140 90.27770 -84.91600
	CHANNELS 6 Xposition Yposition Zposition Zrotation Xrotation Yrotation
	JOINT Spine
	{
		OFFSET 0.00000 13.20850 -1.60436
		CHANNELS 3 Zrotation Xrotation Yrotation
		JOINT Spine1
		{
			OFFSET 0.00000 8.61716 0.00000
			CHANNELS 3 Zrotation Xrotation Yrotation
			JOINT Spine2
			{
				OFFSET 0.00000 8.61717 0.00000
				CHANNELS 3 Zrotation Xrotation Yrotation
				JOINT Spine3
				{
					OFFSET 0.00000 8.61717 0.00000
					CHANNELS 3 Zrotation Xrotation Yrotation
					JOINT Neck
					{
						OFFSET 0.00000 11.07920 1.10792
						CHANNELS 3 Zrotation Xrotation Yrotation
						JOINT Neck1
						{
							OFFSET 0.00000 7.08032 0.00000
							CHANNELS 3 Zrotation Xrotation Yrotation
							JOINT Head
							{
								OFFSET 0.00000 7.08031 0.00000
								CHANNELS 3 Zrotation Xrotation Yrotation
								End site
								{
									OFFSET 0.00000 0.00000 0.00000
								}
							}
						}
					}
					JOINT RightShoulder
					{
						OFFSET -0.01000 7.91373 5.19711
						CHANNELS 3 Zrotation Xrotation Yrotation
						JOINT RightArm
						{
							OFFSET -18.41580 0.00000 0.00000
							CHANNELS 3 Zrotation Xrotation Yrotation
							JOINT RightForeArm
							{
								OFFSET -29.11090 0.00000 0.00000
								CHANNELS 3 Zrotation Xrotation Yrotation
								JOINT RightHand
								{
									OFFSET -24.65040 0.00000 0.00000
									CHANNELS 3 Zrotation Xrotation Yrotation
									JOINT RightHandThumb1
									{
										OFFSET -5.35114 -0.85590 3.97906
										CHANNELS 3 Zrotation Xrotation Yrotation
										JOINT RightHandThumb2
										{
											OFFSET -4.52789 0.00000 0.00000
											CHANNELS 3 Zrotation Xrotation Yrotation
											JOINT RightHandThumb3
											{
												OFFSET -2.46976 0.00000 0.00000
												CHANNELS 3 Zrotation Xrotation Yrotation
												End site
												{
													OFFSET 0.00000 0.00000 0.00000
												}
											}
										}
									}
									JOINT RightHandIndex1
									{
										OFFSET -14.26970 0.00000 2.88139
										CHANNELS 3 Zrotation Xrotation Yrotation
										JOINT RightHandIndex2
										{
											OFFSET -5.48836 0.00000 0.00000
											CHANNELS 3 Zrotation Xrotation Yrotation
											JOINT RightHandIndex3
											{
												OFFSET -3.01859 0.00000 0.00000
												CHANNELS 3 Zrotation Xrotation Yrotation
												End site
												{
													OFFSET 0.00000 0.00000 0.00000
												}
											}
										}
									}
									JOINT RightHandMiddle1
									{
										OFFSET -14.26970 0.00000 -0.09147
										CHANNELS 3 Zrotation Xrotation Yrotation
										JOINT RightHandMiddle2
										{
											OFFSET -6.17441 0.00000 0.00000
											CHANNELS 3 Zrotation Xrotation Yrotation
											JOINT RightHandMiddle3
											{
												OFFSET -3.56743 0.00000 0.00000
												CHANNELS 3 Zrotation Xrotation Yrotation
												End site
												{
													OFFSET 0.00000 0.00000 0.00000
												}
											}
										}
									}
									JOINT RightHandRing1
									{
										OFFSET -12.69180 0.00000 -3.06433
										CHANNELS 3 Zrotation Xrotation Yrotation
										JOINT RightHandRing2
										{
											OFFSET -5.62556 0.00000 0.00000
											CHANNELS 3 Zrotation Xrotation Yrotation
											JOINT RightHandRing3
											{
												OFFSET -3.56744 0.00000 0.00000
												CHANNELS 3 Zrotation Xrotation Yrotation
												End site
												{
													OFFSET 0.00000 0.00000 0.00000
												}
											}
										}
									}
									JOINT RightHandPinky1
									{
										OFFSET -11.11390 0.00000 -6.03719
										CHANNELS 3 Zrotation Xrotation Yrotation
										JOINT RightHandPinky2
										{
											OFFSET -4.52789 0.00000 0.00000
											CHANNELS 3 Zrotation Xrotation Yrotation
											JOINT RightHandPinky3
											{
												OFFSET -2.46976 0.00000 0.00000
												CHANNELS 3 Zrotation Xrotation Yrotation
												End site
												{
													OFFSET 0.00000 0.00000 0.00000
												}
											}
										}
									}
								}
							}
						}
					}
					JOINT LeftShoulder
					{
						OFFSET 0.01000 7.91373 5.19711
						CHANNELS 3 Zrotation Xrotation Yrotation
						JOINT LeftArm
						{
							OFFSET 18.41580 0.00000 0.00000
							CHANNELS 3 Zrotation Xrotation Yrotation
							JOINT LeftForeArm
							{
								OFFSET 29.11090 0.00000 0.00000
								CHANNELS 3 Zrotation Xrotation Yrotation
								JOINT LeftHand
								{
									OFFSET 24.65040 0.00000 0.00000
									CHANNELS 3 Zrotation Xrotation Yrotation
									JOINT LeftHandThumb1
									{
										OFFSET 5.35114 -0.85590 3.97906
										CHANNELS 3 Zrotation Xrotation Yrotation
										JOINT LeftHandThumb2
										{
											OFFSET 4.52789 0.00000 0.00000
											CHANNELS 3 Zrotation Xrotation Yrotation
											JOINT LeftHandThumb3
											{
												OFFSET 2.46977 0.00000 0.00000
												CHANNELS 3 Zrotation Xrotation Yrotation
												End site
												{
													OFFSET 0.00000 0.00000 0.00000
												}
											}
										}
									}
									JOINT LeftHandIndex1
									{
										OFFSET 14.26970 0.00000 2.88139
										CHANNELS 3 Zrotation Xrotation Yrotation
										JOINT LeftHandIndex2
										{
											OFFSET 5.48836 0.00000 0.00000
											CHANNELS 3 Zrotation Xrotation Yrotation
											JOINT LeftHandIndex3
											{
												OFFSET 3.01859 0.00000 0.00000
												CHANNELS 3 Zrotation Xrotation Yrotation
												End site
												{
													OFFSET 0.00000 0.00000 0.00000
												}
											}
										}
									}
									JOINT LeftHandMiddle1
									{
										OFFSET 14.26970 0.00000 -0.09147
										CHANNELS 3 Zrotation Xrotation Yrotation
										JOINT LeftHandMiddle2
										{
											OFFSET 6.17440 0.00000 0.00000
											CHANNELS 3 Zrotation Xrotation Yrotation
											JOINT LeftHandMiddle3
											{
												OFFSET 3.56744 0.00000 0.00000
												CHANNELS 3 Zrotation Xrotation Yrotation
												End site
												{
													OFFSET 0.00000 0.00000 0.00000
												}
											}
										}
									}
									JOINT LeftHandRing1
									{
										OFFSET 12.69180 0.00000 -3.06433
										CHANNELS 3 Zrotation Xrotation Yrotation
										JOINT LeftHandRing2
										{
											OFFSET 5.62556 0.00000 0.00000
											CHANNELS 3 Zrotation Xrotation Yrotation
											JOINT LeftHandRing3
											{
												OFFSET 3.56744 0.00000 0.00000
												CHANNELS 3 Zrotation Xrotation Yrotation
												End site
												{
													OFFSET 0.00000 0.00000 0.00000
												}
											}
										}
									}
									JOINT LeftHandPinky1
									{
										OFFSET 11.11390 0.00000 -6.03719
										CHANNELS 3 Zrotation Xrotation Yrotation
										JOINT LeftHandPinky2
										{
											OFFSET 4.52789 0.00000 0.00000
											CHANNELS 3 Zrotation Xrotation Yrotation
											JOINT LeftHandPinky3
											{
												OFFSET 2.46976 0.00000 0.00000
												CHANNELS 3 Zrotation Xrotation Yrotation
												End site
												{
													OFFSET 0.00000 0.00000 0.00000
												}
											}
										}
									}
								}
							}
						}
					}
					JOINT pCube4
					{
						OFFSET 0.00000 10.91090 1.10792
						CHANNELS 3 Zrotation Xrotation Yrotation
						End site
						{
							OFFSET 0.00000 0.00000 0.00000
						}
					}
				}
			}
		}
	}
	JOINT RightUpLeg
	{
		OFFSET -9.98441 0.00000 0.00000
		CHANNELS 3 Zrotation Xrotation Yrotation
		JOINT RightLeg
		{
			OFFSET 0.00000 -42.11790 0.00000
			CHANNELS 3 Zrotation Xrotation Yrotation
			JOINT RightFoot
			{
				OFFSET 0.00000 -45.00020 -0.00001
				CHANNELS 3 Zrotation Xrotation Yrotation
				JOINT RightForeFoot
				{
					OFFSET 0.00000 -3.74820 0.00000
					CHANNELS 3 Zrotation Xrotation Yrotation
					JOINT RightToeBase
					{
						OFFSET 0.00000 0.06325 14.43120
						CHANNELS 3 Zrotation Xrotation Yrotation
						End site
						{
							OFFSET 0.00000 0.00000 0.00000
						}
					}
				}
			}
		}
	}
	JOINT LeftUpLeg
	{
		OFFSET 9.98441 0.00000 0.00000
		CHANNELS 3 Zrotation Xrotation Yrotation
		JOINT LeftLeg
		{
			OFFSET 0.00000 -42.11800 0.00000
			CHANNELS 3 Zrotation Xrotation Yrotation
			JOINT LeftFoot
			{
				OFFSET 0.00000 -45.00070 0.00000
				CHANNELS 3 Zrotation Xrotation Yrotation
				JOINT LeftForeFoot
				{
					OFFSET 0.00000 -3.74824 0.00000
					CHANNELS 3 Zrotation Xrotation Yrotation
					JOINT LeftToeBase
					{
						OFFSET 0.00000 0.06325 14.43110
						CHANNELS 3 Zrotation Xrotation Yrotation
						End site
						{
							OFFSET 0.00000 0.00000 0.00000
						}
					}
				}
			}
		}
	}
}
MOTION
Frames: 4
Frame Time: 0.050000
-0.017359403922547322 0.04761066956741815 0.044114318965311976 0.047764728627385955 -0.011486369395874864 0.020277825998600185 1.2156849782308043 3.6261375550432966 -1.47662783752257 -0.6401061558773101 3.741562152520269 0.3927605207527206 -0.8068428996435302 -1.2159899848792532 1.4876539636310258 -0.4821391506862633 -0.8894948409906295 -0.3698933775618034 0.4240218688958096 11.823074973316782 -2.161825150322992 0.18996181446959187 -1.6642079392054865 -6.909679913681414 1.0680737105345608 -18.002332879187417 -0.644869004148744 -6.7585211689828215 2.589549632333606 -16.148414936119906 75.60645895046135 -23.200094912228373 19.20849095473025 25.31692686052905 -1.9621244096650208 86.73653290053244 11.038756079573535 -0.2908662666693533 -1.4469127763228826 4.5624413553464525 -0.1647485226949164 -1.602301816222165 -0.03165110404545725 -0.02804186273697534 -56.25942628737431 -0.002375529881470426 -0.011108139475169877 -56.23837888170593 -38.81250224514126 0.03194020493239204 0.0055669562261849645 -0.04666230937316668 0.021620042236629448 -0.013251639109062277 -0.04744549505886932 -0.015765086261484606 -0.046473266462111626 -36.65817440215153 0.0004998901946365855 0.047283831470713585 -0.01789668898855022 0.01536884155653151 -0.019501742712882197 0.04497919280610907 0.00663340853527455 -0.016112793031565008 -19.77882267550993 0.038009232816209076 0.022000708277700162 -0.004499839483731927 0.03085354086611421 0.01045470404608491 0.02121103675315206 0.03563302089650212 -0.044949336353653085 24.078451061709295 0.043510412665604646 0.04855968959970826 28.8327026869916 -0.039814017877527946 0.02652953607917594 28.906940710019143 0.030191441777044404 -0.005868581233711286 5.335703596445932 1.5493776614080397 14.5146653311138 -72.86293372939596 -1.5605874317058273 -10.021880190132196 11.435441114764153 -10.08470096906015 -73.11325880306384 -9.377990362326724 11.58577936071362 -10.961606960766945 -0.5207011882784717 0.09162016993196949 -8.155241367170722 0.0017102588518098393 0.03351657003569403 44.582854127724794 -0.021962611006401036 -0.03961744286754409 44.59008926747801 12.420607369894 0.020353658821552947 -0.04117895075383064 -0.010981218318780437 0.04775323418306741 0.03452781804695615 -0.03674123976733392 -0.007101898930681056 -0.02292964961627244 11.11898380134853 0.015304731435791526 -0.011644346295576055 0.032396285495935435 -0.04800949716804019 0.04648966778289847 -0.013760550390380497 -0.03744951545821878 0.0380239351868043 4.766825935756557 -0.031952476380894004 -0.042289648410400046 0.003242058871601272 0.02554304804114967 -0.00639371557389532 -0.03891142296667022 0.027686251399437378 -0.013608941673972998 -5.591352195864378 -0.026534713514408486 -0.011052660847868797 -6.731875028353399 0.03122611300304451 -0.002913922436949712 -6.735403794069539 -0.0037853872777469967 -0.01805226658348534 -0.01848087630340894 -0.00031210780591450933 0.025989072761345138 8.056054193020021 3.4959472516784187 -19.26513406112482 -0.010605584787450831 10.410471360745088 0.04534487562757261 -5.593788145583318 -15.655183140368353 3.147179335744686 -0.0012298971794124506 0.0025324193746455808 -0.03416101116036002 -0.021750934643425424 4.694286896910862 0.03528173988803371 12.483211024820905 -8.205403729248895 6.90276297441943 0.0053660586021477075 46.366928040344455 -0.01437751755625686 -4.325966418122399 -14.798022701766918 -3.7910946544444877 0.03814488276622504 -0.010782021590489561 -0.041826810795617765 0.011840747083864041 -10.74399546995887 0.03399993775252352 
0.04468483905365586 -0.005192347368705724 -0.015007542676677239 0.011420768771733173 0.043311441505611614 0.008001548697625508 1.6697383023450427 3.662522458880748 -1.5435815905044947 -0.6459113717145486 3.706960234446453 0.36201859026602456 -0.8277182281392753 -1.1545357622481485 1.6793244928276074 -0.46922401339147846 -0.8378528367002805 -0.3347275552498679 0.4795582980992125 11.978394215252349 -2.267249834921223 0.19859799438882422 -1.563169299713251 -7.195092262914203 1.0767333626710256 -17.88091555072667 -0.6082723840764017 -7.666859254324685 2.811095516133683 -16.363344578289826 75.22344926665036 -23.034831341453263 21.79288056317675 22.99842252982978 -3.4541742272419476 89.3407167860033 9.251492756253269 -0.23784350869069823 -0.9511324628907539 4.551407605531452 -0.07859395098487329 -1.5933590986773145 -0.03213821819971291 -0.027295463908964764 -56.21969583360432 -0.008878177561536894 0.001995376971894766 -56.25191669084003 -38.77422370055045 0.023170727069907086 -0.049968838054425764 0.015243887146372585 -0.011636201145626543 -0.04297963043244598 0.03567531750772103 0.04253229107829757 0.03791373013143052 -36.72632389331083 -0.016659952880358566 -0.01672424520987812 -0.005700832195997253 -0.020695683062692243 -0.011170003534507459 0.035674998988989876 -0.0003170142814518224 -0.0024440728229969165 -19.796127603097847 -0.04813365810232981 -0.016800518449933126 0.03788098206252623 -0.04070238076702867 0.026332010759971554 0.02561725200249005 -0.023485371658864274 0.013417527735851417 24.09660187772506 -0.034471812590631694 -0.04571622825754717 28.88721941793228 0.012442881836481672 0.010247233281939662 28.81637728312385 -0.003361793801354568 -0.010115556312194435 5.751093895997142 1.6139626105977516 14.681450580799837 -71.91401920511582 0.756036674428555 -9.479690736792188 14.50053895617015 -13.8736473361488 -78.20713684103838 -7.539253012122356 9.194816173617735 -10.55690651403411 -0.49064668230727837 0.08257925908678755 -8.074966256647171 0.03055240109460286 -0.02876100983481513 44.5281427435321 -0.04426014310486301 0.004007956079932689 44.60990842479134 12.428196728392122 -0.016602707660528127 0.022904883548076262 0.0368798598576869 0.03775656779725423 0.010162582620335607 -0.02996282600349359 0.01952162336672332 -0.002665681824442886 11.114792944048547 0.029118110789534617 0.02486228167312547 0.035403373719272435 -0.003151809972779232 0.014406236437014788 -0.0007131382950237954 0.01154880361357425 0.015797918190167383 4.791738689873033 -0.014686008884316013 0.014348520740354833 -0.01387381426664297 0.029762729555465398 0.04135737734551087 0.034700545080518064 0.0005555188900445332 0.048876759371080526 -5.602686615772303 0.006623249016622039 0.009867931857889634 -6.716462859240909 0.03315148447039383 0.0018734999741254611 -6.7107970099402054 0.01717014092193647 -0.0410640918958213 -0.03317466957348801 -0.01909550668245617 0.003079256062740729 8.0627163777404 3.510512718256611 -19.253210751201088 -0.01743627257085882 10.43731810602251 -0.011977596718946326 -5.632152538252651 -15.696532346083783 3.2265707376988435 0.026236868697960714 -0.01998247226799751 0.008349174143321042 -0.018903044712084024 4.730812406116049 -0.005002303403596145 12.430138918059429 -8.232110119051596 6.8392275620019936 -0.021820119940241876 46.347107924496335 -0.036471042450838896 -4.34716808735823 -14.757400228630816 -3.843065262547842 -0.038043154873741894 0.032203641925483036 -0.0485250565601903 0.019548883077341 -10.7210527886665 0.027045535659446937 
0.00797203739442558 0.0157400092791712 0.045644438345757384 -0.040975122274221454 0.0033519455451785987 -0.04026914948649177 1.8627843463933031 3.6910330765347186 -1.4976194600867463 -0.7559202038941435 3.7278343656298203 0.4419870139567357 -0.7995325567804441 -1.158924497869938 2.042277967681483 -0.5583057608586409 -0.8615228857400524 -0.2122935578037563 0.4998858103394387 12.264295686203317 -2.1977037118016924 0.14694992426069337 -1.3914681256217327 -7.350417262267851 1.1145395212840217 -17.77296498227787 -0.6042645612771731 -8.6679095956878 3.080700241171956 -16.494095371689724 74.92245237782333 -24.94479792616562 25.5800138587365 21.627964870660367 -4.714651917285597 91.27279699324389 7.8166041153595565 -0.25451024360916713 -0.37952224599521506 4.5209202574935885 -0.08421698413415354 -1.601990817376248 0.022332661789166354 0.003597625988944483 -56.24494600443691 0.019235089316529234 -0.03100490714368986 -56.19937303084942 -38.723750903840106 0.00029071710413271706 0.038261080493209504 0.025996737241765586 -0.041424533653356355 0.04552507752922242 -0.021279288019617974 -0.016506050571339803 0.001658522731055846 -36.713596045711604 -0.020081198910883148 0.01170397545489431 -0.039720431055529866 0.04603467295581783 -0.010554223621552387 -0.018636374083352992 -0.008784653358916561 -0.023394294561764263 -19.74350075772239 -0.030992991525501952 0.025849271341204978 -0.019766473673397445 0.01387444148544308 0.004913548553891602 -0.02031759626848831 -0.04575914141781135 -0.0016824989318804861 24.071939958651566 0.002549310391486744 -0.03301384185391682 28.878026261717665 0.02341368196879088 -0.039840716449804685 28.88394946623883 -0.042080232569548744 -0.04871278970342521 6.146380657030901 1.6626063932913404 14.816382332289317 -71.40058746785161 0.20439487543254964 -9.460560995189715 15.388448589508606 -15.04404724936969 -80.97816903793398 -6.286773675265296 8.13957844294611 -10.603070394952676 -0.5102219261344689 0.06514145281478695 -8.082099336470385 -0.03760624158007921 0.004061478022327822 44.59481151175154 -0.024128257668273513 0.001529920068831941 44.53454075584881 12.438437590595733 -0.008356979744971961 -0.003557590386706466 0.021898765614752905 0.04550284959803625 0.006193810463321157 -0.01733880406121318 -0.029599620693770118 0.04413650058688129 11.142724261137555 0.022399696695484084 0.010355393313442082 0.0031229243231130355 0.027369433045236626 0.010133658173774799 0.010445813627426965 -0.0201562428159951 0.039417901315366405 4.796452759526661 0.025753119217914497 -0.022296156398024614 0.00420375429602411 -0.02760046013918005 0.032798190010156617 0.027565574032291817 0.006666974617578232 0.047818432293059196 -5.591650857626757 -0.025143294254873425 -0.00988514460784732 -6.703609213822574 0.021703664501770102 -0.00829245037138919 -6.75335625748926 -0.013168947718165036 0.0282762705972596 -0.04273681029475204 0.041758562282142905 0.02467678214669877 8.068061985278488 3.5236623721121476 -19.251698659319175 0.0010921332982309032 10.405304675105523 0.0480781729027024 -5.63630882209912 -15.611514342104973 3.2296329086426443 0.02416376602515993 0.0009289016184988369 -0.006571705731522629 -0.004466743326018598 4.6912425209049955 -0.006277197563680626 12.472926010166546 -8.194248648441011 6.896981137667377 -0.030715086112828714 46.3925593619434 0.01489041141020569 -4.354276911600685 -14.746565139247746 -3.8459383578210593 0.044336389835557946 -0.03679032801821545 0.020706978895417935 -0.03961920468541809 -10.732010447898729 -0.023967585785085427 
0.012388322464837754 0.04328774598378289 0.012503049741594975 0.03793810662053102 -0.018513830457907884 -0.026249641853159783 2.091674801262886 3.7278740873022427 -1.4795076702800294 -0.7594856674474334 3.8093971116773373 0.4014736820391862 -0.8274892757750002 -1.1969195948154239 2.2821511879011527 -0.6315642492887062 -0.8617065530896186 -0.1562604849293967 0.5493411099742113 12.476106132248082 -2.1604648314908066 0.12801633345506902 -1.3729357646139575 -7.292027511179087 1.1156566909733279 -17.765267006676563 -0.6394910772338311 -9.692971386005409 3.3361733463892613 -16.69238009897173 74.66612606854922 -27.77536458246802 29.033845569108944 20.593093249475015 -5.637445333212072 92.4021222670824 6.680694236707108 -0.16623623991551129 0.1269027927298858 4.484283347367356 -0.10780472351627422 -1.565796030038947 -0.013430785093292485 0.004280440784405768 -56.19566856326339 0.013861837289209866 -0.008156224692721734 -56.259766806600574 -38.80204487414574 -0.015042625038621549 -0.0321261136191904 0.03534891493100467 0.018555238210293375 0.03394620031796039 -0.02221873571131893 0.00682774385268905 -0.000663852918760225 -36.72560528014308 -0.018120990449562384 0.04221854613078162 0.012931299105928894 0.028066963173955677 -0.04003642923464949 -0.01859349766753342 -0.007934342445184168 0.009977009097293614 -19.78033956237625 0.010945850103184447 0.0037838633942988606 -0.011450223390527349 0.033315473314112144 0.023332632466677102 -0.0034958050671385216 0.02890880245441209 -0.03483661228556428 24.04079561858881 0.02279326865446584 0.03239066872493486 28.831567404014006 -0.025325093834965815 0.02635096257007383 28.896532098532287 -0.04016057931216068 0.03656517360537133 6.6605241217742845 1.7742448849251733 15.06988954368248 -71.30781750651985 -2.1085094518252006 -9.77625895496512 14.625035222006222 -14.18865795299902 -82.82889556148125 -5.464291622338658 7.958794727567382 -11.01897765120532 -0.47524968148346364 0.05923851171058995 -8.152068021116873 0.007544285669709029 -0.013972712007203344 44.54894658474883 -0.025627756853504293 0.0263368567307185 44.59213921035132 12.44526446556559 0.021632747391349766 -0.020653512327070928 -0.01968115560357954 0.03069531607354134 -0.024023626134233173 0.007951799223846645 0.021356216419629773 0.025637773898640068 11.103243784789937 -0.026308485096119893 0.002370179283791647 -0.008605793424145653 -0.024335727642356943 -0.02297675713582332 0.007370138789724996 0.03811847899944034 0.0372585591351443 4.777243378003195 -0.019924455481285887 -0.011880475688597196 0.035116465661733175 0.003737805611081992 0.02083681945726947 -0.04543622896150963 -0.005007134145280395 0.03255087548682855 -5.566329061113872 -0.04473498223130736 0.029732241892603047 -6.75262236516863 -0.04391666795191335 -0.012062592043442018 -6.699921893984314 0.030942764852615864 0.012093131993218754 -0.003464153894874318 -0.038723830448600345 -0.04008776800585394 7.9972741961034695 3.505414272639844 -19.216150855290184 -0.0467819957448417 10.387332979995996 0.04260709535355471 -5.621810152385542 -15.692205700019617 3.179769359350972 -0.011679645769168327 -0.002314702741829957 0.009764854976326452 -0.03895057930095119 4.702459759494598 -0.043389316260053684 12.45487539557063 -8.273583191675627 6.852349049366535 0.03588532228683318 46.34202396223236 -0.007650305259927543 -4.2976086258863 -14.722648929307482 -3.869516225527601 0.012763069104896553 -0.02784669622655511 0.03140446104815749 -0.0103916513490866 -10.735673549747226 0.00446688856030162 
